<?xml version="1.0" standalone="no"?>
<!DOCTYPE svg PUBLIC "-//W3C//DTD SVG 20010904//EN"
 "http://www.w3.org/TR/2001/REC-SVG-20010904/DTD/svg10.dtd">
<svg version="1.0" xmlns="http://www.w3.org/2000/svg"
 width="336.000000pt" height="336.000000pt" viewBox="0 0 336.000000 336.000000"
 preserveAspectRatio="xMidYMid meet">
<metadata>
Created by potrace 1.14, written by Peter Selinger 2001-2017
</metadata>
<g transform="translate(0.000000,336.000000) scale(0.100000,-0.100000)"
fill="#000000" stroke="none">
<path d="M1691 2650 c-6 -3 -13 -26 -16 -50 -3 -25 -10 -72 -15 -105 -5 -33
-12 -85 -16 -115 -3 -30 -9 -69 -14 -87 -5 -22 -4 -35 3 -41 7 -4 99 -8 205
-7 l192 1 -6 -56 c-3 -30 -8 -58 -10 -61 -3 -5 -15 -98 -18 -144 -1 -11 -4
-24 -6 -30 -3 -5 -5 -21 -5 -35 0 -23 4 -25 40 -24 22 1 59 4 83 8 112 16 287
39 309 39 17 0 29 40 38 127 3 25 7 56 10 70 2 14 7 48 11 75 3 28 7 61 10 75
2 14 6 49 10 78 3 29 7 63 10 75 6 31 20 128 27 192 2 20 -4 20 -415 21 -230
0 -422 -2 -427 -6z"/>
<path d="M2309 1859 c-7 -4 -16 -6 -20 -3 -4 2 -29 0 -55 -5 -27 -5 -74 -12
-104 -15 -30 -3 -64 -8 -76 -10 -12 -2 -45 -7 -75 -11 -30 -4 -57 -10 -61 -13
-3 -4 -9 -27 -13 -52 -3 -25 -8 -56 -10 -70 -2 -14 -7 -45 -10 -70 -3 -25 -8
-56 -10 -70 -2 -14 -9 -63 -16 -110 -17 -123 -47 -165 -147 -206 -61 -25 -178
-27 -209 -4 -62 47 30 -32 142 -121 72 -57 132 -106 135 -109 27 -28 152 -120
162 -120 19 1 100 59 153 109 118 112 190 265 210 441 3 30 8 66 10 80 2 14 7
45 10 70 3 25 10 72 15 106 6 33 13 85 16 115 3 30 7 58 7 64 2 12 -37 15 -54
4z"/>
<path d="M1190 1385 c-30 -7 -70 -16 -87 -19 -77 -14 -100 -19 -177 -35 l-81
-18 3 -59 c8 -181 108 -331 277 -415 44 -22 91 -42 105 -45 112 -22 148 -26
250 -21 119 5 215 27 304 67 40 18 46 24 35 35 -8 6 -106 86 -219 176 -240
192 -246 196 -277 229 -24 25 -37 59 -42 113 -1 10 -26 8 -91 -8z"/>
</g>
</svg>
